<svg xmlns="http://www.w3.org/2000/svg" viewBox="0 0 21 25" shape-rendering="crispEdges"><rect x="13" y="0" width="1" height="1" fill="#ff6036"/><rect x="17" y="1" width="2" height="1" fill="#000000"/><rect x="11" y="2" width="1" height="1" fill="#ff9f4a"/><rect x="16" y="2" width="1" height="1" fill="#000000"/><rect x="17" y="2" width="1" height="1" fill="#563232"/><rect x="18" y="2" width="1" height="1" fill="#000000"/><rect x="10" y="3" width="1" height="1" fill="#ff9f4a"/><rect x="11" y="3" width="1" height="1" fill="#ffda5c"/><rect x="12" y="3" width="1" height="1" fill="#ff9f4a"/><rect x="15" y="3" width="1" height="1" fill="#000000"/><rect x="16" y="3" width="1" height="1" fill="#563232"/><rect x="17" y="3" width="1" height="1" fill="#000000"/><rect x="8" y="4" width="1" height="1" fill="#ff6036"/><rect x="11" y="4" width="1" height="1" fill="#ff9f4a"/><rect x="14" y="4" width="1" height="1" fill="#000000"/><rect x="15" y="4" width="1" height="1" fill="#563232"/><rect x="16" y="4" width="1" height="1" fill="#000000"/><rect x="18" y="4" width="1" height="1" fill="#ff6036"/><rect x="9" y="5" width="5" height="1" fill="#000000"/><rect x="14" y="5" width="1" height="1" fill="#563232"/><rect x="15" y="5" width="1" height="1" fill="#000000"/><rect x="7" y="6" width="2" height="1" fill="#000000"/><rect x="9" y="6" width="1" height="1" fill="#ff9f4a"/><rect x="10" y="6" width="2" height="1" fill="#4c5d77"/><rect x="12" y="6" width="1" height="1" fill="#000000"/><rect x="13" y="6" width="1" height="1" fill="#563232"/><rect x="14" y="6" width="1" height="1" fill="#000000"/><rect x="15" y="6" width="1" height="1" fill="#4c5d77"/><rect x="16" y="6" width="2" height="1" fill="#000000"/><rect x="6" y="7" width="1" height="1" fill="#000000"/><rect x="7" y="7" width="1" height="1" fill="#23334d"/><rect x="8" y="7" width="1" height="1" fill="#4c5d77"/><rect x="9" y="7" width="1" height="1" fill="#ff9f4a"/><rect x="10" y="7" width="2" height="1" fill="#000000"/><rect x="12" y="7" width="1" height="1" fill="#563232"/><rect x="13" y="7" width="3" height="1" fill="#000000"/><rect x="16" y="7" width="2" height="1" fill="#4c5d77"/><rect x="18" y="7" width="1" height="1" fill="#000000"/><rect x="5" y="8" width="1" height="1" fill="#000000"/><rect x="6" y="8" width="1" height="1" fill="#23334d"/><rect x="7" y="8" width="4" height="1" fill="#000000"/><rect x="11" y="8" width="1" height="1" fill="#563232"/><rect x="12" y="8" width="1" height="1" fill="#000000"/><rect x="13" y="8" width="2" height="1" fill="#7813a1"/><rect x="15" y="8" width="3" height="1" fill="#000000"/><rect x="18" y="8" width="1" height="1" fill="#4c5d77"/><rect x="19" y="8" width="1" height="1" fill="#000000"/><rect x="5" y="9" width="1" height="1" fill="#000000"/><rect x="6" y="9" width="1" height="1" fill="#23334d"/><rect x="7" y="9" width="2" height="1" fill="#000000"/><rect x="9" y="9" width="1" height="1" fill="#7813a1"/><rect x="10" y="9" width="1" height="1" fill="#be01be"/><rect x="11" y="9" width="3" height="1" fill="#7813a1"/><rect x="14" y="9" width="1" height="1" fill="#ff9f4a"/><rect x="15" y="9" width="1" height="1" fill="#7813a1"/><rect x="16" y="9" width="2" height="1" fill="#000000"/><rect x="18" y="9" width="1" height="1" fill="#4c5d77"/><rect x="19" y="9" width="1" height="1" fill="#000000"/><rect x="5" y="10" width="1" height="1" fill="#000000"/><rect x="6" y="10" width="1" height="1" fill="#23334d"/><rect x="7" y="10" width="1" height="1" fill="#000000"/><rect x="8" y="10" width="1" height="1" fill="#7813a1"/><rect x="9" y="10" width="1" height="1" fill="#be01be"/><rect x="10" y="10" width="3" height="1" fill="#7813a1"/><rect x="13" y="10" width="1" height="1" fill="#ff9f4a"/><rect x="14" y="10" width="1" height="1" fill="#7813a1"/><rect x="15" y="10" width="1" height="1" fill="#be01be"/><rect x="16" y="10" width="1" height="1" fill="#7813a1"/><rect x="17" y="10" width="1" height="1" fill="#000000"/><rect x="18" y="10" width="1" height="1" fill="#4c5d77"/><rect x="19" y="10" width="1" height="1" fill="#000000"/><rect x="6" y="11" width="1" height="1" fill="#000000"/><rect x="7" y="11" width="2" height="1" fill="#23334d"/><rect x="9" y="11" width="1" height="1" fill="#7813a1"/><rect x="10" y="11" width="1" height="1" fill="#be01be"/><rect x="11" y="11" width="3" height="1" fill="#7813a1"/><rect x="14" y="11" width="1" height="1" fill="#be01be"/><rect x="15" y="11" width="1" height="1" fill="#7813a1"/><rect x="16" y="11" width="2" height="1" fill="#4c5d77"/><rect x="18" y="11" width="1" height="1" fill="#000000"/><rect x="5" y="12" width="1" height="1" fill="#000000"/><rect x="6" y="12" width="1" height="1" fill="#23334d"/><rect x="7" y="12" width="2" height="1" fill="#000000"/><rect x="9" y="12" width="1" height="1" fill="#23334d"/><rect x="10" y="12" width="6" height="1" fill="#4c5d77"/><rect x="16" y="12" width="2" height="1" fill="#000000"/><rect x="18" y="12" width="1" height="1" fill="#23334d"/><rect x="19" y="12" width="1" height="1" fill="#000000"/><rect x="5" y="13" width="1" height="1" fill="#000000"/><rect x="6" y="13" width="3" height="1" fill="#23334d"/><rect x="9" y="13" width="7" height="1" fill="#000000"/><rect x="16" y="13" width="2" height="1" fill="#23334d"/><rect x="18" y="13" width="1" height="1" fill="#4c5d77"/><rect x="19" y="13" width="1" height="1" fill="#000000"/><rect x="4" y="14" width="1" height="1" fill="#000000"/><rect x="5" y="14" width="2" height="1" fill="#23334d"/><rect x="7" y="14" width="2" height="1" fill="#4c5d77"/><rect x="9" y="14" width="7" height="1" fill="#23334d"/><rect x="16" y="14" width="4" height="1" fill="#4c5d77"/><rect x="20" y="14" width="1" height="1" fill="#000000"/><rect x="4" y="15" width="1" height="1" fill="#000000"/><rect x="5" y="15" width="2" height="1" fill="#23334d"/><rect x="7" y="15" width="10" height="1" fill="#4c5d77"/><rect x="17" y="15" width="1" height="1" fill="#ffffff"/><rect x="18" y="15" width="1" height="1" fill="#4c5d77"/><rect x="19" y="15" width="1" height="1" fill="#23334d"/><rect x="20" y="15" width="1" height="1" fill="#000000"/><rect x="3" y="16" width="5" height="1" fill="#000000"/><rect x="8" y="16" width="1" height="1" fill="#4c5d77"/><rect x="9" y="16" width="2" height="1" fill="#23334d"/><rect x="11" y="16" width="5" height="1" fill="#4c5d77"/><rect x="16" y="16" width="1" height="1" fill="#ffffff"/><rect x="17" y="16" width="2" height="1" fill="#4c5d77"/><rect x="19" y="16" width="1" height="1" fill="#23334d"/><rect x="20" y="16" width="1" height="1" fill="#000000"/><rect x="2" y="17" width="1" height="1" fill="#000000"/><rect x="3" y="17" width="2" height="1" fill="#e8afa3"/><rect x="5" y="17" width="3" height="1" fill="#e3e0d9"/><rect x="8" y="17" width="1" height="1" fill="#000000"/><rect x="9" y="17" width="4" height="1" fill="#4c5d77"/><rect x="13" y="17" width="1" height="1" fill="#23334d"/><rect x="14" y="17" width="6" height="1" fill="#4c5d77"/><rect x="20" y="17" width="1" height="1" fill="#000000"/><rect x="1" y="18" width="1" height="1" fill="#000000"/><rect x="2" y="18" width="2" height="1" fill="#e8afa3"/><rect x="4" y="18" width="5" height="1" fill="#e3e0d9"/><rect x="9" y="18" width="1" height="1" fill="#000000"/><rect x="10" y="18" width="2" height="1" fill="#4c5d77"/><rect x="12" y="18" width="1" height="1" fill="#23334d"/><rect x="13" y="18" width="2" height="1" fill="#4c5d77"/><rect x="15" y="18" width="2" height="1" fill="#23334d"/><rect x="17" y="18" width="2" height="1" fill="#4c5d77"/><rect x="19" y="18" width="1" height="1" fill="#000000"/><rect x="0" y="19" width="1" height="1" fill="#000000"/><rect x="1" y="19" width="1" height="1" fill="#b57c70"/><rect x="2" y="19" width="1" height="1" fill="#e8afa3"/><rect x="3" y="19" width="6" height="1" fill="#e3e0d9"/><rect x="9" y="19" width="1" height="1" fill="#000000"/><rect x="10" y="19" width="5" height="1" fill="#4c5d77"/><rect x="15" y="19" width="1" height="1" fill="#23334d"/><rect x="16" y="19" width="3" height="1" fill="#4c5d77"/><rect x="19" y="19" width="1" height="1" fill="#000000"/><rect x="0" y="20" width="1" height="1" fill="#000000"/><rect x="1" y="20" width="1" height="1" fill="#b57c70"/><rect x="2" y="20" width="1" height="1" fill="#e8afa3"/><rect x="3" y="20" width="1" height="1" fill="#e3e0d9"/><rect x="4" y="20" width="1" height="1" fill="#000000"/><rect x="5" y="20" width="1" height="1" fill="#e8afa3"/><rect x="6" y="20" width="2" height="1" fill="#e3e0d9"/><rect x="8" y="20" width="2" height="1" fill="#000000"/><rect x="10" y="20" width="3" height="1" fill="#4c5d77"/><rect x="13" y="20" width="1" height="1" fill="#23334d"/><rect x="14" y="20" width="4" height="1" fill="#4c5d77"/><rect x="18" y="20" width="1" height="1" fill="#000000"/><rect x="1" y="21" width="1" height="1" fill="#000000"/><rect x="2" y="21" width="1" height="1" fill="#b57c70"/><rect x="3" y="21" width="3" height="1" fill="#e3e0d9"/><rect x="6" y="21" width="1" height="1" fill="#000000"/><rect x="7" y="21" width="1" height="1" fill="#e3e0d9"/><rect x="8" y="21" width="1" height="1" fill="#e8afa3"/><rect x="9" y="21" width="1" height="1" fill="#000000"/><rect x="10" y="21" width="5" height="1" fill="#4c5d77"/><rect x="15" y="21" width="2" height="1" fill="#23334d"/><rect x="17" y="21" width="2" height="1" fill="#000000"/><rect x="2" y="22" width="2" height="1" fill="#000000"/><rect x="4" y="22" width="1" height="1" fill="#e8afa3"/><rect x="5" y="22" width="3" height="1" fill="#e3e0d9"/><rect x="8" y="22" width="1" height="1" fill="#000000"/><rect x="9" y="22" width="6" height="1" fill="#23334d"/><rect x="15" y="22" width="2" height="1" fill="#000000"/><rect x="4" y="23" width="1" height="1" fill="#000000"/><rect x="5" y="23" width="1" height="1" fill="#e8afa3"/><rect x="6" y="23" width="2" height="1" fill="#e3e0d9"/><rect x="8" y="23" width="1" height="1" fill="#000000"/><rect x="10" y="23" width="5" height="1" fill="#000000"/><rect x="4" y="24" width="4" height="1" fill="#000000"/></svg>